<svg width="22" height="15" viewBox="0 0 22 15" fill="none" xmlns="http://www.w3.org/2000/svg">
<g id="Vector">
<path id="Vector-39" d="M15.2499 0.979197C14.6631 0.979197 14.1874 1.45489 14.1874 2.0417C14.1874 2.6285 14.6631 3.1042 15.2499 3.1042V0.979197ZM20.9166 3.1042C21.5034 3.1042 21.9791 2.6285 21.9791 2.0417C21.9791 1.45489 21.5034 0.979197 20.9166 0.979197V3.1042ZM21.9791 2.0417C21.9791 1.45489 21.5034 0.979197 20.9166 0.979197C20.3298 0.979197 19.8541 1.45489 19.8541 2.0417H21.9791ZM19.8541 7.70836C19.8541 8.29517 20.3298 8.77086 20.9166 8.77086C21.5034 8.77086 21.9791 8.29517 21.9791 7.70836H19.8541ZM21.6679 2.79296C22.0829 2.37803 22.0829 1.70529 21.6679 1.29036C21.253 0.875424 20.5803 0.875423 20.1653 1.29036L21.6679 2.79296ZM11 11.9583L10.2487 12.7096C10.6636 13.1246 11.3363 13.1246 11.7513 12.7096L11 11.9583ZM6.74998 7.70832L7.50128 6.95702C7.08635 6.54209 6.41361 6.54209 5.99868 6.95702L6.74998 7.70832ZM0.332012 12.6237C-0.08292 13.0386 -0.0829201 13.7114 0.332012 14.1263C0.746944 14.5412 1.41968 14.5412 1.83461 14.1263L0.332012 12.6237ZM15.2499 3.1042H20.9166V0.979197H15.2499V3.1042ZM19.8541 2.0417V7.70836H21.9791V2.0417H19.8541ZM20.1653 1.29036L10.2487 11.207L11.7513 12.7096L21.6679 2.79296L20.1653 1.29036ZM11.7513 11.207L7.50128 6.95702L5.99868 8.45962L10.2487 12.7096L11.7513 11.207ZM5.99868 6.95702L0.332012 12.6237L1.83461 14.1263L7.50128 8.45962L5.99868 6.95702Z" fill="#57A15E"/>
</g>
</svg>
