<svg width="114" height="40" viewBox="0 0 114 40" fill="none" xmlns="http://www.w3.org/2000/svg">
<path d="M104.922 0.00013H9.08337C8.73403 0.00013 8.38888 0.00013 8.04046 0.00213C7.7488 0.00413 7.45947 0.00994 7.16501 0.01483C6.52531 0.0227318 5.88711 0.0818063 5.25596 0.19154C4.6257 0.303663 4.01518 0.515046 3.44505 0.81854C2.87562 1.1246 2.35532 1.5223 1.90302 1.9972C1.44834 2.47077 1.06933 3.01815 0.780568 3.61829C0.491005 4.21724 0.290221 4.85907 0.185151 5.52161C0.0790818 6.18332 0.0220051 6.85265 0.0144329 7.52361C0.00559216 7.83021 0.00465854 8.13783 0 8.44447V31.5587C0.00465854 31.8692 0.00559216 32.17 0.0144329 32.4806C0.0220074 33.1516 0.0790841 33.8209 0.185151 34.4825C0.289931 35.1455 0.490727 35.7877 0.780568 36.3868C1.0692 36.985 1.44826 37.5302 1.90302 38.0011C2.35361 38.4781 2.87425 38.8761 3.44505 39.1798C4.01517 39.4841 4.62563 39.6968 5.25596 39.8106C5.88721 39.9195 6.52535 39.9786 7.16501 39.9874C7.45947 39.9942 7.7488 39.9981 8.04046 39.9981C8.38887 40.0001 8.73405 40.0001 9.08337 40.0001H104.922C105.264 40.0001 105.612 40.0001 105.954 39.9981C106.245 39.9981 106.542 39.9942 106.833 39.9874C107.471 39.9791 108.108 39.92 108.738 39.8106C109.37 39.696 109.983 39.4834 110.556 39.1798C111.126 38.8759 111.646 38.478 112.097 38.0011C112.55 37.5284 112.93 36.9836 113.222 36.3868C113.51 35.7872 113.709 35.1451 113.812 34.4825C113.918 33.8208 113.977 33.1516 113.989 32.4806C113.993 32.17 113.993 31.8692 113.993 31.5587C114 31.1954 114 30.8341 114 30.4649V9.53626C114 9.17005 114 8.80677 113.993 8.44447C113.993 8.13783 113.993 7.83021 113.989 7.52357C113.977 6.85255 113.918 6.18337 113.812 5.52157C113.709 4.85941 113.51 4.21763 113.222 3.61825C112.634 2.41533 111.702 1.43616 110.556 0.81845C109.983 0.515697 109.37 0.30437 108.738 0.19145C108.108 0.0812328 107.471 0.0221378 106.833 0.01469C106.542 0.00981 106.245 0.00395 105.954 0.002C105.612 0 105.264 0 104.922 0V0.00013Z" fill="#A6A6A6"/>
<path d="M8.04545 39.125C7.75519 39.125 7.47195 39.1211 7.18397 39.1143C6.58739 39.1061 5.99221 39.0516 5.4033 38.9512C4.85417 38.8519 4.32222 38.6673 3.82498 38.4033C3.3323 38.1415 2.88293 37.7983 2.4941 37.3867C2.09964 36.98 1.77123 36.5082 1.5219 35.9902C1.26981 35.4688 1.09535 34.9099 1.0046 34.333C0.906591 33.7131 0.853566 33.0863 0.845978 32.458C0.839938 32.2471 0.832031 31.5449 0.832031 31.5449V8.44434C0.832031 8.44434 0.840453 7.75293 0.846026 7.5498C0.853291 6.92248 0.906008 6.29665 1.00372 5.67773C1.09464 5.09925 1.26924 4.53875 1.52146 4.01563C1.76988 3.49794 2.09646 3.02586 2.48855 2.61768C2.88019 2.20562 3.33099 1.8606 3.82451 1.59521C4.32061 1.33209 4.85156 1.14873 5.39957 1.05127C5.99042 0.949836 6.58766 0.894996 7.18631 0.88721L8.04592 0.875H105.95L106.82 0.8877C107.413 0.895099 108.005 0.94945 108.59 1.05029C109.144 1.14898 109.68 1.33362 110.182 1.59814C111.171 2.13299 111.975 2.97916 112.483 4.01807C112.731 4.53758 112.903 5.09351 112.993 5.66699C113.092 6.29099 113.147 6.92174 113.158 7.5542C113.161 7.8374 113.161 8.1416 113.161 8.44434C113.169 8.81934 113.169 9.17627 113.169 9.53613V30.4648C113.169 30.8281 113.169 31.1826 113.161 31.54C113.161 31.8652 113.161 32.1631 113.157 32.4697C113.146 33.0909 113.092 33.7104 112.995 34.3232C112.906 34.9043 112.732 35.4675 112.48 35.9932C112.229 36.5056 111.903 36.9733 111.513 37.3789C111.123 37.7927 110.673 38.1379 110.179 38.4014C109.679 38.6674 109.143 38.8527 108.59 38.9512C108.002 39.0522 107.406 39.1067 106.81 39.1143C106.531 39.1211 106.238 39.125 105.955 39.125L104.922 39.127L8.04545 39.125Z" fill="black"/>
<path d="M23.5969 20.3013C23.6072 19.4666 23.8184 18.6483 24.2109 17.9223C24.6034 17.1964 25.1645 16.5864 25.8419 16.1492C25.4116 15.5041 24.8438 14.9731 24.1838 14.5986C23.5238 14.224 22.7896 14.0162 22.0397 13.9916C20.4399 13.8153 18.889 14.9964 18.0738 14.9964C17.2428 14.9964 15.9877 14.0091 14.6361 14.0383C13.7619 14.0679 12.9099 14.3348 12.1631 14.8128C11.4163 15.2909 10.8003 15.9638 10.3749 16.7661C8.53246 20.1145 9.90677 25.0356 11.6717 27.7422C12.5547 29.0676 13.5867 30.548 14.9371 30.4955C16.2585 30.438 16.752 29.611 18.3471 29.611C19.9273 29.611 20.3903 30.4955 21.7681 30.4621C23.186 30.438 24.0794 29.1309 24.9314 27.793C25.5659 26.8486 26.0541 25.8049 26.378 24.7005C25.5542 24.3347 24.8512 23.7226 24.3567 22.9403C23.8621 22.158 23.5979 21.2402 23.5969 20.3013Z" fill="white"/>
<path d="M20.9952 12.2113C21.7683 11.2371 22.1492 9.98494 22.057 8.7207C20.8759 8.85092 19.7848 9.44348 19.0012 10.3803C18.6181 10.838 18.3247 11.3704 18.1378 11.9472C17.9508 12.524 17.874 13.1337 17.9117 13.7417C18.5025 13.7481 19.0869 13.6137 19.621 13.3486C20.1552 13.0835 20.625 12.6946 20.9952 12.2113Z" fill="white"/>
<path d="M40.3011 27.1397H35.7917L34.7088 30.4961H32.7988L37.07 18.0781H39.0544L43.3256 30.4961H41.3831L40.3011 27.1397ZM36.2588 25.5908H39.8332L38.0711 20.1436H38.0218L36.2588 25.5908Z" fill="white"/>
<path d="M52.5505 25.9695C52.5505 28.7829 51.1159 30.5905 48.951 30.5905C48.4026 30.6207 47.8572 30.4881 47.3772 30.2079C46.8973 29.9278 46.5022 29.5114 46.2372 29.0065H46.1962V33.4909H44.4258V21.4421H46.1395V22.948H46.1721C46.4492 22.4455 46.851 22.0313 47.3346 21.7495C47.8182 21.4676 48.3656 21.3287 48.9184 21.3474C51.1075 21.3474 52.5505 23.1638 52.5505 25.9695ZM50.7307 25.9695C50.7307 24.1365 49.8283 22.9314 48.4514 22.9314C47.0987 22.9314 46.1888 24.1618 46.1888 25.9695C46.1888 27.7937 47.0987 29.0154 48.4514 29.0154C49.8283 29.0154 50.7307 27.8191 50.7307 25.9695Z" fill="white"/>
<path d="M62.0426 25.9694C62.0426 28.7829 60.6081 30.5905 58.4432 30.5905C57.8948 30.6206 57.3494 30.488 56.8694 30.2079C56.3895 29.9278 55.9944 29.5114 55.7294 29.0065H55.6884V33.4909H53.918V21.4421H55.6316V22.948H55.6642C55.9414 22.4455 56.3432 22.0313 56.8268 21.7495C57.3104 21.4676 57.8577 21.3287 58.4106 21.3474C60.5997 21.3474 62.0426 23.1638 62.0426 25.9694ZM60.2229 25.9694C60.2229 24.1364 59.3205 22.9314 57.9436 22.9314C56.5909 22.9314 55.681 24.1618 55.681 25.9694C55.681 27.7937 56.5909 29.0153 57.9436 29.0153C59.3205 29.0153 60.2229 27.8191 60.2229 25.9694H60.2229Z" fill="white"/>
<path d="M68.3182 27.0362C68.4494 28.2676 69.589 29.0762 71.1464 29.0762C72.6387 29.0762 73.7123 28.2676 73.7123 27.1572C73.7123 26.1934 73.0648 25.6162 71.5316 25.2207L69.9984 24.833C67.826 24.2822 66.8176 23.2158 66.8176 21.4854C66.8176 19.3428 68.5964 17.8711 71.1222 17.8711C73.622 17.8711 75.3357 19.3428 75.3934 21.4854H73.6062C73.4992 20.2461 72.5233 19.4981 71.0971 19.4981C69.6709 19.4981 68.695 20.2549 68.695 21.3565C68.695 22.2344 69.3183 22.751 70.8431 23.1465L72.1465 23.4824C74.5738 24.0849 75.5823 25.1084 75.5823 26.9248C75.5823 29.248 73.8193 30.7031 71.0152 30.7031C68.3917 30.7031 66.6203 29.2822 66.5059 27.0361L68.3182 27.0362Z" fill="white"/>
<path d="M79.402 19.2998V21.4424H81.0422V22.9141H79.402V27.9053C79.402 28.6807 79.7305 29.042 80.4515 29.042C80.6462 29.0384 80.8406 29.0241 81.0338 28.999V30.4619C80.7097 30.5255 80.3802 30.5543 80.0505 30.5478C78.3042 30.5478 77.6232 29.8593 77.6232 28.1035V22.9141H76.3691V21.4424H77.6232V19.2998H79.402Z" fill="white"/>
<path d="M81.9922 25.9697C81.9922 23.1211 83.5905 21.3311 86.0829 21.3311C88.5836 21.3311 90.1745 23.1211 90.1745 25.9697C90.1745 28.8262 88.592 30.6084 86.0829 30.6084C83.5746 30.6084 81.9922 28.8262 81.9922 25.9697ZM88.3706 25.9697C88.3706 24.0156 87.5175 22.8623 86.0829 22.8623C84.6483 22.8623 83.7961 24.0244 83.7961 25.9697C83.7961 27.9316 84.6483 29.0762 86.0829 29.0762C87.5175 29.0762 88.3705 27.9316 88.3705 25.9697H88.3706Z" fill="white"/>
<path d="M91.6348 21.442H93.3233V22.983H93.3643C93.4785 22.5017 93.7472 22.0764 94.125 21.7785C94.5028 21.4806 94.9668 21.3284 95.439 21.3473C95.643 21.3465 95.8464 21.3698 96.0455 21.4166V23.1549C95.788 23.0723 95.5193 23.0343 95.2501 23.0426C94.9929 23.0316 94.7365 23.0792 94.4984 23.1821C94.2604 23.285 94.0464 23.4408 93.8712 23.6386C93.6959 23.8365 93.5635 24.0719 93.4831 24.3286C93.4026 24.5852 93.3761 24.8571 93.4052 25.1256V30.4957H91.6348L91.6348 21.442Z" fill="white"/>
<path d="M104.208 27.8369C103.97 29.4805 102.445 30.6084 100.494 30.6084C97.9851 30.6084 96.4277 28.8437 96.4277 26.0127C96.4277 23.1729 97.9935 21.3311 100.42 21.3311C102.806 21.3311 104.307 23.0518 104.307 25.7969V26.4336H98.2149V26.5459C98.1868 26.8791 98.2265 27.2148 98.3315 27.5306C98.4365 27.8464 98.6043 28.1352 98.8237 28.3778C99.0432 28.6203 99.3093 28.8111 99.6043 28.9374C99.8994 29.0637 100.217 29.1226 100.535 29.1103C100.954 29.1515 101.373 29.0498 101.732 28.8203C102.091 28.5909 102.37 28.246 102.527 27.8369L104.208 27.8369ZM98.2233 25.1348H102.535C102.551 24.8352 102.508 24.5354 102.408 24.2541C102.309 23.9729 102.155 23.7164 101.956 23.5006C101.757 23.2849 101.518 23.1145 101.254 23.0003C100.99 22.8861 100.706 22.8305 100.42 22.8369C100.132 22.8351 99.8457 22.8933 99.5789 23.008C99.3121 23.1227 99.0696 23.2918 98.8654 23.5054C98.6612 23.7191 98.4993 23.973 98.3891 24.2527C98.2789 24.5323 98.2225 24.8321 98.2233 25.1348V25.1348Z" fill="white"/>
<path d="M36.0357 8.7304C36.4068 8.70244 36.7793 8.7613 37.1262 8.90274C37.4731 9.04417 37.7857 9.26465 38.0416 9.54828C38.2975 9.8319 38.4902 10.1716 38.6058 10.5429C38.7215 10.9141 38.7572 11.3077 38.7104 11.6952C38.7104 13.6015 37.7289 14.6972 36.0357 14.6972H33.9824V8.7304H36.0357ZM34.8653 13.8534H35.9371C36.2023 13.87 36.4677 13.8244 36.714 13.7198C36.9603 13.6152 37.1813 13.4542 37.3609 13.2487C37.5404 13.0431 37.6741 12.7981 37.7521 12.5315C37.8301 12.2648 37.8504 11.9833 37.8117 11.7074C37.8476 11.4326 37.8252 11.1528 37.746 10.8881C37.6668 10.6235 37.5328 10.3805 37.3537 10.1765C37.1745 9.97261 36.9546 9.8128 36.7097 9.70856C36.4648 9.60433 36.2009 9.55824 35.9371 9.57361H34.8653V13.8534Z" fill="white"/>
<path d="M39.7068 12.4438C39.6799 12.1479 39.7121 11.8493 39.8015 11.5672C39.8909 11.2852 40.0355 11.0258 40.226 10.8059C40.4164 10.5859 40.6486 10.4101 40.9076 10.2898C41.1666 10.1696 41.4467 10.1074 41.7299 10.1074C42.0131 10.1074 42.2931 10.1696 42.5521 10.2898C42.8111 10.4101 43.0433 10.5859 43.2338 10.8059C43.4242 11.0258 43.5688 11.2852 43.6582 11.5672C43.7476 11.8493 43.7799 12.1479 43.7529 12.4438C43.7804 12.74 43.7485 13.039 43.6593 13.3215C43.5702 13.6041 43.4257 13.8639 43.2352 14.0843C43.0446 14.3047 42.8123 14.4808 42.553 14.6014C42.2938 14.7219 42.0134 14.7842 41.7299 14.7842C41.4463 14.7842 41.1659 14.7219 40.9067 14.6014C40.6474 14.4808 40.4151 14.3047 40.2246 14.0843C40.034 13.8639 39.8895 13.6041 39.8004 13.3215C39.7112 13.039 39.6794 12.74 39.7068 12.4438ZM42.8821 12.4438C42.8821 11.4677 42.4644 10.8969 41.7313 10.8969C40.9954 10.8969 40.5814 11.4677 40.5814 12.4438C40.5814 13.4277 40.9954 13.9941 41.7313 13.9941C42.4644 13.9941 42.8821 13.4238 42.8821 12.4438H42.8821Z" fill="white"/>
<path d="M49.1323 14.6973H48.254L47.3674 11.3809H47.3005L46.4176 14.6973H45.5477L44.3652 10.1943H45.2239L45.9924 13.6303H46.0557L46.9376 10.1943H47.7498L48.6318 13.6303H48.6988L49.4635 10.1943H50.3101L49.1323 14.6973Z" fill="white"/>
<path d="M51.3047 10.1939H52.1197V10.9092H52.1829C52.2903 10.6523 52.4713 10.4369 52.7007 10.2931C52.9302 10.1493 53.1967 10.0842 53.4631 10.107C53.6718 10.0905 53.8814 10.1235 54.0763 10.2036C54.2712 10.2837 54.4465 10.4088 54.5891 10.5697C54.7317 10.7305 54.838 10.923 54.9001 11.1328C54.9622 11.3426 54.9785 11.5644 54.9479 11.7818V14.6968H54.1013V12.0049C54.1013 11.2813 53.8017 10.9214 53.1756 10.9214C53.0339 10.9145 52.8924 10.9398 52.7609 10.9957C52.6294 11.0515 52.5109 11.1365 52.4136 11.2449C52.3163 11.3533 52.2425 11.4825 52.1972 11.6236C52.152 11.7647 52.1363 11.9145 52.1513 12.0625V14.6968H51.3047L51.3047 10.1939Z" fill="white"/>
<path d="M56.2969 8.43652H57.1435V14.6973H56.2969V8.43652Z" fill="white"/>
<path d="M58.3201 12.4439C58.2931 12.1479 58.3254 11.8494 58.4148 11.5673C58.5043 11.2852 58.6489 11.0259 58.8393 10.8059C59.0298 10.5859 59.262 10.4101 59.521 10.2898C59.78 10.1696 60.0601 10.1074 60.3434 10.1074C60.6266 10.1074 60.9067 10.1696 61.1657 10.2898C61.4247 10.4101 61.6569 10.5859 61.8473 10.8059C62.0378 11.0259 62.1824 11.2852 62.2719 11.5673C62.3613 11.8494 62.3936 12.1479 62.3666 12.4439C62.394 12.7401 62.3622 13.0391 62.273 13.3216C62.1838 13.6042 62.0393 13.864 61.8487 14.0844C61.6582 14.3048 61.4258 14.4809 61.1666 14.6014C60.9073 14.722 60.6269 14.7842 60.3434 14.7842C60.0598 14.7842 59.7794 14.722 59.5201 14.6014C59.2609 14.4809 59.0285 14.3048 58.838 14.0844C58.6474 13.864 58.5029 13.6042 58.4137 13.3216C58.3245 13.0391 58.2926 12.7401 58.3201 12.4439ZM61.4953 12.4439C61.4953 11.4678 61.0776 10.897 60.3445 10.897C59.6086 10.897 59.1946 11.4678 59.1946 12.4439C59.1946 13.4278 59.6086 13.9942 60.3445 13.9942C61.0776 13.9942 61.4953 13.4239 61.4953 12.4439H61.4953Z" fill="white"/>
<path d="M63.2578 13.4238C63.2578 12.6133 63.8328 12.146 64.8533 12.0796L66.0153 12.0093V11.6206C66.0153 11.145 65.7158 10.8765 65.1371 10.8765C64.6645 10.8765 64.337 11.0586 64.243 11.377H63.4234C63.5099 10.6035 64.203 10.1074 65.1762 10.1074C66.2516 10.1074 66.8582 10.6694 66.8582 11.6206V14.6973H66.0432V14.0645H65.9763C65.8403 14.2914 65.6494 14.4765 65.423 14.6007C65.1966 14.7249 64.9429 14.7838 64.6877 14.7715C64.5077 14.7911 64.3256 14.7709 64.1534 14.7122C63.9812 14.6535 63.8227 14.5576 63.6879 14.4307C63.5532 14.3037 63.4453 14.1485 63.3712 13.9751C63.2972 13.8017 63.2585 13.6139 63.2578 13.4238ZM66.0153 13.0391V12.6626L64.9678 12.7329C64.377 12.7744 64.1091 12.9853 64.1091 13.3823C64.1091 13.7876 64.444 14.0234 64.9045 14.0234C65.0395 14.0378 65.1758 14.0235 65.3054 13.9814C65.4349 13.9393 65.5551 13.8703 65.6587 13.7784C65.7624 13.6866 65.8474 13.5738 65.9086 13.4468C65.9699 13.3198 66.0062 13.1811 66.0153 13.0391Z" fill="white"/>
<path d="M67.9707 12.4439C67.9707 11.021 68.6675 10.1196 69.7514 10.1196C70.0195 10.1067 70.2855 10.1741 70.5185 10.314C70.7514 10.4539 70.9416 10.6605 71.0669 10.9096H71.1301V8.43652H71.9767V14.6973H71.1655V13.9858H71.0985C70.9636 14.2333 70.7668 14.4374 70.5293 14.5758C70.2919 14.7143 70.0228 14.782 69.7514 14.7715C68.6601 14.7715 67.9707 13.8701 67.9707 12.4439ZM68.8453 12.4439C68.8453 13.3989 69.2741 13.9737 69.9914 13.9737C70.705 13.9737 71.146 13.3907 71.146 12.4478C71.146 11.5093 70.7004 10.918 69.9914 10.918C69.2788 10.918 68.8452 11.4966 68.8452 12.4439H68.8453Z" fill="white"/>
<path d="M75.4803 12.4438C75.4533 12.1479 75.4856 11.8493 75.5749 11.5672C75.6643 11.2852 75.8089 11.0258 75.9994 10.8059C76.1899 10.5859 76.4221 10.4101 76.681 10.2898C76.94 10.1696 77.2201 10.1074 77.5033 10.1074C77.7865 10.1074 78.0666 10.1696 78.3255 10.2898C78.5845 10.4101 78.8167 10.5859 79.0072 10.8059C79.1977 11.0258 79.3422 11.2852 79.4316 11.5672C79.521 11.8493 79.5533 12.1479 79.5263 12.4438C79.5538 12.74 79.5219 13.039 79.4328 13.3215C79.3436 13.6041 79.1991 13.8639 79.0086 14.0843C78.8181 14.3047 78.5857 14.4808 78.3265 14.6014C78.0672 14.7219 77.7868 14.7842 77.5033 14.7842C77.2198 14.7842 76.9394 14.7219 76.6801 14.6014C76.4209 14.4808 76.1885 14.3047 75.998 14.0843C75.8075 13.8639 75.663 13.6041 75.5738 13.3215C75.4847 13.039 75.4528 12.74 75.4803 12.4438ZM78.6555 12.4438C78.6555 11.4677 78.2378 10.8969 77.5047 10.8969C76.7688 10.8969 76.3548 11.4677 76.3548 12.4438C76.3548 13.4277 76.7688 13.9941 77.5047 13.9941C78.2378 13.9941 78.6555 13.4238 78.6555 12.4438Z" fill="white"/>
<path d="M80.6621 10.1939H81.4771V10.9092H81.5404C81.6477 10.6523 81.8287 10.4369 82.0582 10.2931C82.2876 10.1493 82.5541 10.0842 82.8205 10.107C83.0292 10.0905 83.2388 10.1235 83.4337 10.2036C83.6286 10.2837 83.8039 10.4088 83.9465 10.5697C84.0891 10.7305 84.1954 10.923 84.2575 11.1328C84.3196 11.3426 84.336 11.5644 84.3053 11.7818V14.6968H83.4587V12.0049C83.4587 11.2813 83.1591 10.9214 82.533 10.9214C82.3913 10.9145 82.2498 10.9398 82.1183 10.9957C81.9868 11.0515 81.8683 11.1365 81.771 11.2449C81.6737 11.3533 81.5999 11.4825 81.5547 11.6236C81.5094 11.7647 81.4937 11.9145 81.5087 12.0625V14.6968H80.6621V10.1939Z" fill="white"/>
<path d="M89.0891 9.07324V10.2148H90.0185V10.9634H89.0891V13.2788C89.0891 13.7505 89.2742 13.957 89.6957 13.957C89.8036 13.9567 89.9114 13.9498 90.0185 13.9365V14.6768C89.8665 14.7053 89.7124 14.7205 89.558 14.7222C88.6165 14.7222 88.2416 14.3745 88.2416 13.5063V10.9633H87.5605V10.2148H88.2416V9.07324H89.0891Z" fill="white"/>
<path d="M91.1738 8.43652H92.013V10.918H92.08C92.1925 10.6587 92.3785 10.4421 92.6126 10.2977C92.8466 10.1534 93.1174 10.0883 93.388 10.1113C93.5956 10.0995 93.8032 10.1359 93.9959 10.2179C94.1886 10.2999 94.3617 10.4256 94.5028 10.586C94.6439 10.7463 94.7496 10.9373 94.8122 11.1455C94.8749 11.3536 94.893 11.5737 94.8654 11.79V14.6973H94.0179V12.0093C94.0179 11.29 93.6988 10.9258 93.1006 10.9258C92.9551 10.9132 92.8087 10.9342 92.6718 10.9873C92.5348 11.0404 92.4105 11.1242 92.3076 11.2329C92.2047 11.3417 92.1257 11.4727 92.0761 11.6168C92.0265 11.761 92.0075 11.9147 92.0205 12.0674V14.6973H91.1739L91.1738 8.43652Z" fill="white"/>
<path d="M99.8021 13.4815C99.6871 13.8931 99.4379 14.249 99.098 14.4872C98.7582 14.7253 98.3495 14.8305 97.9433 14.7842C97.6607 14.7921 97.3798 14.7353 97.1202 14.6177C96.8606 14.5002 96.6285 14.3248 96.4399 14.1036C96.2514 13.8825 96.1109 13.6209 96.0283 13.3371C95.9458 13.0533 95.923 12.754 95.9617 12.46C95.924 12.1652 95.9472 11.8652 96.0296 11.5805C96.112 11.2959 96.2517 11.0331 96.4392 10.81C96.6268 10.587 96.8578 10.4088 97.1166 10.2876C97.3755 10.1664 97.6561 10.105 97.9395 10.1075C99.1332 10.1075 99.8533 10.9635 99.8533 12.3775V12.6876H96.8241V12.7374C96.8108 12.9026 96.8306 13.069 96.8822 13.2257C96.9337 13.3825 97.0159 13.5262 97.1235 13.6476C97.2311 13.7691 97.3616 13.8656 97.5068 13.931C97.652 13.9964 97.8086 14.0292 97.9665 14.0274C98.169 14.0529 98.3742 14.0146 98.5559 13.9174C98.7377 13.8202 98.8878 13.6685 98.9871 13.4815L99.8021 13.4815ZM96.824 12.0303H98.9908C99.0015 11.8792 98.9819 11.7274 98.9334 11.5847C98.8848 11.442 98.8084 11.3115 98.7089 11.2016C98.6095 11.0918 98.4892 11.005 98.3559 10.9468C98.2226 10.8886 98.0792 10.8604 97.9349 10.8638C97.7885 10.8619 97.6431 10.8908 97.5075 10.9487C97.3719 11.0067 97.2487 11.0925 97.1451 11.2012C97.0416 11.3099 96.9599 11.4393 96.9047 11.5817C96.8496 11.7241 96.8222 11.8766 96.8241 12.0303H96.824Z" fill="white"/>
</svg>
