<svg width="18" height="16" viewBox="0 0 18 16" fill="none" xmlns="http://www.w3.org/2000/svg">
<g clip-path="url(#clip0_806_183)">
<path d="M7.50533 3.10047C8.70445 2.91166 9.92539 2.91166 11.1245 3.10047L11.4738 2.38303C11.4738 2.25716 11.5862 2.23198 11.7235 2.25716C12.7429 2.4468 13.736 2.75955 14.6812 3.18859C14.782 3.22991 14.8687 3.29988 14.9308 3.38998C16.0168 4.98879 16.7488 6.80458 17.0773 8.71406C17.2703 9.86546 17.3206 11.0366 17.227 12.2006C17.2241 12.2729 17.2047 12.3435 17.17 12.4068C17.1354 12.4702 17.0866 12.5245 17.0274 12.5655C15.8809 13.3753 14.6183 14.0036 13.2835 14.4284C13.2591 14.441 13.2324 14.4483 13.205 14.45C13.1777 14.4517 13.1502 14.4477 13.1245 14.4382C13.0987 14.4288 13.0752 14.4141 13.0553 14.3951C13.0354 14.376 13.0197 14.3531 13.009 14.3277C12.7719 13.9249 12.5097 13.5096 12.2476 13.069L13.5955 12.4145C13.4083 12.1502 13.3084 12.1125 13.0713 12.2132C11.8648 12.761 10.5569 13.0442 9.2338 13.0442C7.91071 13.0442 6.6026 12.761 5.39616 12.2132C5.20896 12.125 5.13408 12.2131 4.92192 12.4145L5.57089 12.7544L6.24485 13.0564L6.13258 13.3082L5.4836 14.3528C5.4836 14.4535 5.35873 14.4535 5.24641 14.3528C3.90569 13.9311 2.64139 13.2935 1.50246 12.4648C1.45059 12.4332 1.40745 12.3891 1.37693 12.3363C1.3464 12.2835 1.32945 12.2238 1.32772 12.1628C1.13773 10.0694 1.44145 7.96043 2.21389 6.008C2.58878 5.05868 3.06145 4.15164 3.62412 3.30186C3.67501 3.22719 3.74355 3.16659 3.82369 3.12563C4.7858 2.6924 5.79541 2.37553 6.83137 2.18164C6.95617 2.18164 7.01865 2.18167 7.06857 2.29495L7.50533 3.10047ZM13.4083 8.92801C13.3841 8.74092 13.3466 8.55584 13.296 8.3742C13.2341 8.13355 13.1084 7.91441 12.9325 7.74018C12.7566 7.56595 12.5372 7.4432 12.2975 7.38504C12.0579 7.32687 11.807 7.33546 11.5718 7.40993C11.3366 7.48439 11.126 7.62198 10.9623 7.80786C10.6772 8.13244 10.5197 8.55107 10.5197 8.9847C10.5197 9.41834 10.6772 9.83696 10.9623 10.1615C11.0953 10.3048 11.2581 10.4167 11.4389 10.4892C11.6198 10.5617 11.8144 10.5931 12.0087 10.5811C12.203 10.569 12.3922 10.5139 12.5629 10.4197C12.7337 10.3254 12.8818 10.1942 12.9965 10.0356C13.2511 9.7223 13.3958 9.3329 13.4083 8.92801ZM8.12932 8.92801C8.09682 8.71965 8.05098 8.51365 7.99206 8.31128C7.91238 8.06405 7.7664 7.84386 7.57038 7.67504C7.37436 7.50622 7.13593 7.39534 6.88134 7.35469C6.64494 7.3124 6.40146 7.33982 6.18011 7.43359C5.95875 7.52735 5.76892 7.68353 5.63335 7.88338C5.38715 8.20947 5.26229 8.61236 5.28053 9.02181C5.29878 9.43126 5.45893 9.82125 5.73314 10.1237C5.85847 10.2681 6.01294 10.3838 6.1862 10.4631C6.35946 10.5423 6.54758 10.5833 6.73783 10.5833C6.92808 10.5833 7.11605 10.5423 7.28931 10.4631C7.46257 10.3838 7.61704 10.2681 7.74237 10.1237C8.00214 9.78583 8.13882 9.36808 8.12932 8.94061V8.92801Z" fill="#777D8C"/>
</g>
<defs>
<clipPath id="clip0_806_183">
<rect width="17.4545" height="16" fill="white" transform="translate(0.54541)"/>
</clipPath>
</defs>
</svg>
