<svg width="111" height="29" viewBox="0 0 111 29" fill="none" xmlns="http://www.w3.org/2000/svg">
<path d="M21.7119 2C19.9171 2 18.4625 3.4546 18.4625 5.24943V12.9792C18.3191 12.9697 12.193 12.9659 12.193 12.9659V5.24943C12.193 3.4546 10.7384 2 8.94358 2C7.14875 2 5.69415 3.4546 5.69415 5.24943V13.0959C2.44854 13.7247 0 16.5823 0 20.0095C0 23.8993 3.15386 27.0531 7.04362 27.0531H18.0305C21.9203 27.0531 24.9518 23.8993 24.9518 20.0095C24.9518 19.5756 24.9595 5.24943 24.9595 5.24943C24.9595 3.4546 23.5049 2 21.71 2H21.7119ZM8.35486 20.3497H5.0175C4.29498 20.3497 3.71009 19.7648 3.71009 19.0423C3.71009 18.3198 4.29498 17.7349 5.0175 17.7349H8.35486C9.07738 17.7349 9.66228 18.3198 9.66228 19.0423C9.66228 19.7648 9.07738 20.3497 8.35486 20.3497ZM17.4724 20.3497H14.135C13.4125 20.3497 12.8276 19.7648 12.8276 19.0423C12.8276 18.3198 13.4125 17.7349 14.135 17.7349H17.4724C18.1949 17.7349 18.7798 18.3198 18.7798 19.0423C18.7798 19.7648 18.1949 20.3497 17.4724 20.3497Z" fill="white"/>
<path d="M42.2091 5.60889C42.1613 8.31165 42.1613 11.2572 42.1613 15.7701C42.1613 19.4152 42.1613 21.9726 42.2091 24.2893H38.2506C38.2754 23.8554 38.2754 23.4445 38.2754 22.9379C38.2754 22.5996 38.3003 22.2861 38.3003 21.9727H38.155C37.744 23.3011 36.8762 24.4823 35.1387 24.4823C32.8699 24.4823 31.4937 22.7927 31.4937 16.7105C31.4937 10.6283 33.1834 8.84306 35.4044 8.84306C36.708 8.84306 37.6485 9.37443 38.2047 10.6054H38.3251C38.3003 9.80832 38.2773 9.18138 38.2773 8.36137C38.2773 7.34832 38.2773 6.50344 38.2525 5.6108H42.211L42.2091 5.60889ZM38.3232 12.4155C37.9371 12.2225 37.4783 12.125 36.947 12.125C35.8364 12.125 35.2821 12.8494 35.2821 16.6627C35.2821 20.476 35.8135 21.0074 36.731 21.0074C37.6485 21.0074 38.3232 20.3078 38.3232 18.4728V12.4155Z" fill="white"/>
<path d="M52.3456 17.0965C54.108 17.3622 54.7598 18.0618 55.2185 20.4262C55.509 21.7776 55.7728 23.4195 55.9678 24.2873H52.2501C51.6709 24.2873 51.5734 24.0216 51.3096 22.7907C50.826 18.7365 50.6101 18.1803 49.6199 18.1803C49.1134 18.1803 48.8229 18.1803 48.2208 18.2051C48.2456 20.6671 48.2934 22.7906 48.4138 24.2873H44.2393C44.2641 21.6801 44.3119 19.0978 44.3119 15.2367C44.3119 11.3756 44.287 8.79323 44.2393 6.18604H50.417C53.6034 6.18604 55.3886 7.51448 55.3886 11.5916C55.3886 15.0665 54.5686 16.5632 52.3475 16.9741V17.0946L52.3456 17.0965ZM51.453 12.3427C51.453 9.88082 50.849 9.44692 49.5951 9.46986C49.3065 9.44501 48.7024 9.46988 48.1711 9.49473C48.1711 11.4253 48.1711 13.3807 48.1959 15.2137C48.582 15.2137 49.1612 15.2137 49.813 15.2386C50.9465 15.2386 51.4549 14.3937 51.4549 12.3427H51.453Z" fill="white"/>
<path d="M66.6082 23.7103C65.3295 24.2168 63.808 24.5074 62.1909 24.5074C58.2801 24.5074 56.6401 22.2633 56.6401 16.7603C56.6401 10.6782 58.498 8.77246 61.9749 8.77246C65.4518 8.77246 66.5853 10.3169 66.5853 14.4914C66.5853 15.795 66.5127 17.242 66.4649 17.7504C65.3792 17.7256 63.9781 17.7256 62.7472 17.7256H60.3579C60.4783 19.9696 61.1301 20.7419 62.6745 20.7419C63.9781 20.7419 64.8956 20.5736 66.0769 20.0652C66.1744 21.0553 66.4152 22.7201 66.6082 23.7103ZM60.3579 15.6976C61.1779 15.7224 62.168 15.7224 63.1811 15.6976C63.2059 15.2866 63.2059 14.8049 63.2059 14.178C63.2059 12.2704 62.8446 11.7887 61.9998 11.7887C60.9619 11.7887 60.4305 12.5609 60.3579 15.6995V15.6976Z" fill="white"/>
<path d="M78.5553 9.03583C78.5075 10.1942 78.5075 12.2222 78.5075 16.0584C78.5075 19.6309 78.5075 21.9704 78.5553 24.289H74.5968C74.6216 23.8551 74.6216 23.4442 74.6216 22.9625C74.6216 22.6242 74.6464 22.3107 74.6464 21.9972L74.5012 21.9724C74.0902 23.3008 73.2224 24.4821 71.4849 24.4821C69.2161 24.4821 67.8398 22.7924 67.8398 16.7102C67.8398 10.628 69.5296 8.84277 71.7506 8.84277C73.0294 8.84277 73.9717 9.39708 74.526 10.5554L74.6216 10.5305V10.1922C74.6216 9.75831 74.5968 9.39518 74.5968 9.03392H78.5553V9.03583ZM74.6694 12.4152C74.2833 12.247 73.8245 12.1247 73.2932 12.1247C72.1826 12.1247 71.6283 12.8739 71.6283 16.6853C71.6283 20.2807 72.1597 21.0052 73.0772 21.0052C73.9947 21.0052 74.6694 20.3285 74.6694 18.4706V12.4133V12.4152Z" fill="white"/>
<path d="M90.7672 5.60889C90.7194 8.31165 90.7194 11.2572 90.7194 15.7701C90.7194 19.4152 90.7194 21.9726 90.7672 24.2893H86.8087C86.8335 23.8554 86.8335 23.4445 86.8335 22.9379C86.8335 22.5996 86.8584 22.2861 86.8584 21.9727H86.7131C86.3021 23.3011 85.4343 24.4823 83.6969 24.4823C81.428 24.4823 80.0518 22.7927 80.0518 16.7105C80.0518 10.6283 81.7415 8.84306 83.9625 8.84306C85.2661 8.84306 86.2066 9.37443 86.7628 10.6054H86.8832C86.8584 9.80832 86.8354 9.18138 86.8354 8.36137C86.8354 7.34832 86.8354 6.50344 86.8106 5.6108H90.7691L90.7672 5.60889ZM86.8813 12.4155C86.4952 12.2225 86.0364 12.125 85.5051 12.125C84.3945 12.125 83.8402 12.8494 83.8402 16.6627C83.8402 20.476 84.3716 21.0074 85.2891 21.0074C86.2066 21.0074 86.8813 20.3078 86.8813 18.4728V12.4155Z" fill="white"/>
<path d="M101.676 23.7103C100.397 24.2168 98.8754 24.5074 97.2583 24.5074C93.3475 24.5074 91.7075 22.2633 91.7075 16.7603C91.7075 10.6782 93.5654 8.77246 97.0423 8.77246C100.519 8.77246 101.653 10.3169 101.653 14.4914C101.653 15.795 101.58 17.242 101.532 17.7504C100.447 17.7256 99.0455 17.7256 97.8145 17.7256H95.4252C95.5457 19.9696 96.1975 20.7419 97.7419 20.7419C99.0455 20.7419 99.963 20.5736 101.144 20.0652C101.242 21.0553 101.483 22.7201 101.676 23.7103ZM95.4233 15.6976C96.2433 15.7224 97.2335 15.7224 98.2465 15.6976C98.2714 15.2866 98.2714 14.8049 98.2714 14.178C98.2714 12.2704 97.9101 11.7887 97.0653 11.7887C96.0274 11.7887 95.496 12.5609 95.4233 15.6995V15.6976Z" fill="white"/>
<path d="M106.55 11.9317C107.008 9.71061 107.998 8.89062 109.325 8.89062C109.686 8.89062 110.049 8.93841 110.363 9.0359C110.242 10.4848 110.145 12.2452 110.145 13.9349C109.807 13.8374 109.421 13.7667 109.082 13.7667C107.803 13.7915 107.37 14.3707 107.37 16.5172C107.37 18.9313 107.37 21.9476 107.49 24.2891H103.315C103.363 22.1406 103.363 19.824 103.363 16.4943C103.363 13.1645 103.363 11.1614 103.315 9.0359H106.477C106.429 9.95338 106.404 10.846 106.381 11.9087L106.55 11.9336V11.9317Z" fill="white"/>
</svg>
