<svg width="110" height="26" viewBox="0 0 110 26" fill="none" xmlns="http://www.w3.org/2000/svg">
<path d="M26.9414 13.6994C26.9414 8.92511 29.5344 5.48438 34.5913 5.48438C38.7505 5.48438 41.061 7.84654 41.6261 11.5681L38.8797 12.1074C38.3404 9.51435 36.9793 8.10326 34.4638 8.10326C31.2557 8.10326 29.8687 10.4137 29.8687 13.6994C29.8687 16.6767 31.2815 18.9372 34.7981 18.9372C38.0579 18.9372 38.9831 17.4485 38.9831 15.8048V15.5998H34.4397V13.0068H41.757V21.196H38.9848V17.6277H38.9331C38.4197 19.7849 36.8277 21.4527 33.8246 21.4527C29.4862 21.4527 26.9449 18.2187 26.9449 13.6994H26.9414Z" fill="white"/>
<path d="M43.541 15.3158C43.541 11.2342 45.9549 8.82031 49.7023 8.82031C53.4497 8.82031 55.2226 11.1308 55.2226 14.4423C55.2226 14.9299 55.2226 15.4175 55.1709 16.0601H46.3133C46.57 18.0881 47.7502 19.0891 49.7281 19.0891C51.7061 19.0891 52.3729 18.1397 52.7312 16.9061L55.1451 17.5987C54.5283 19.9092 52.8863 21.5012 49.7023 21.5012C46.0048 21.5012 43.541 19.2941 43.541 15.3141V15.3158ZM46.3391 14.0064H52.6537C52.5004 12.1318 51.5235 11.1566 49.6248 11.1566C47.7261 11.1566 46.6458 12.0543 46.3391 14.0064Z" fill="white"/>
<path d="M59.8298 21.1963H57.0576V9.12872H59.8298V12.4402H59.8557C60.395 9.87304 61.9353 8.82031 63.9632 8.82031C66.8646 8.82031 67.9673 10.7207 67.9673 13.3379V21.1928H65.1951V14.0564C65.1951 12.5936 64.5542 11.31 62.6796 11.31C60.9084 11.31 59.8298 12.3369 59.8298 14.0564V21.1928V21.1963Z" fill="white"/>
<path d="M69.623 15.3158C69.623 11.2342 72.0369 8.82031 75.7843 8.82031C79.5317 8.82031 81.3047 11.1308 81.3047 14.4423C81.3047 14.9299 81.3046 15.4175 81.253 16.0601H72.3953C72.652 18.0881 73.8322 19.0891 75.8102 19.0891C77.7881 19.0891 78.4549 18.1397 78.8133 16.9061L81.2271 17.5987C80.6103 19.9092 78.9683 21.5012 75.7843 21.5012C72.0869 21.5012 69.623 19.2941 69.623 15.3141V15.3158ZM72.4228 14.0064H78.7375C78.5841 12.1318 77.6072 11.1566 75.7085 11.1566C73.8098 11.1566 72.7295 12.0543 72.4228 14.0064Z" fill="white"/>
<path d="M82.3213 17.3696L84.9143 16.8561C85.3003 18.3706 86.0704 19.3975 87.995 19.3975C89.4577 19.3975 90.1779 18.8324 90.2021 17.883C90.2021 17.0095 89.5852 16.5477 87.1731 16.1118C83.9133 15.4692 82.7572 14.3406 82.7572 12.4144C82.7572 10.2314 84.3492 8.82031 87.5074 8.82031C90.6655 8.82031 92.1542 10.2331 92.6676 12.5436L90.0229 13.1346C89.6628 11.5426 88.9443 10.8758 87.5074 10.8758C86.1979 10.8758 85.5053 11.4151 85.5053 12.2869C85.5053 13.1587 85.9929 13.6997 88.4326 14.1098C91.7958 14.7266 92.9243 15.9585 92.9243 17.8072C92.9243 20.066 91.3582 21.5305 87.9433 21.5305C84.0666 21.5305 82.7572 19.7335 82.3213 17.3713V17.3696Z" fill="white"/>
<path d="M94.5645 7.51274V5.45898H97.5676V7.51274H94.5645ZM94.6919 21.1964V9.12887H97.4642V21.1947H94.6919V21.1964Z" fill="white"/>
<path d="M99.1094 17.3696L101.702 16.8561C102.088 18.3706 102.859 19.3975 104.783 19.3975C106.246 19.3975 106.966 18.8324 106.99 17.883C106.99 17.0095 106.373 16.5477 103.961 16.1118C100.701 15.4692 99.5453 14.3406 99.5453 12.4144C99.5453 10.2314 101.137 8.82031 104.295 8.82031C107.454 8.82031 108.942 10.2331 109.456 12.5436L106.811 13.1346C106.451 11.5426 105.732 10.8758 104.295 10.8758C102.986 10.8758 102.293 11.4151 102.293 12.2869C102.293 13.1587 102.781 13.6997 105.221 14.1098C108.584 14.7266 109.714 15.9585 109.714 17.8072C109.714 20.066 108.148 21.5305 104.733 21.5305C100.856 21.5305 99.547 19.7335 99.1111 17.3713L99.1094 17.3696Z" fill="white"/>
<path d="M9.46932 0.5C4.23845 0.5 0 8.84252 0 15.7464C0 22.6502 4.24017 25.5 9.46932 25.5C14.6985 25.5 18.9387 22.6502 18.9387 15.7464C18.9387 8.84252 14.6985 0.5 9.46932 0.5ZM5.61337 15.1313C5.61337 15.7929 5.07753 16.3287 4.41592 16.3287C3.75431 16.3287 3.21847 15.7929 3.21847 15.1313V10.5431C3.21847 9.88146 3.75431 9.34562 4.41592 9.34562C5.07753 9.34562 5.61337 9.88146 5.61337 10.5431V15.1313ZM12.2726 15.1313C12.2726 15.7929 11.7367 16.3287 11.0751 16.3287C10.4135 16.3287 9.87766 15.7929 9.87766 15.1313V10.5431C9.87766 9.88146 10.4135 9.34562 11.0751 9.34562C11.7367 9.34562 12.2726 9.88146 12.2726 10.5431V15.1313Z" fill="white"/>
</svg>
