<svg viewBox="0 0 1920 220" fill="currentCOlor" xmlns="http://www.w3.org/2000/svg">
<path d="M-375 0V58.0315C-358.567 51.1024 -334.35 45.9055 -301.483 49.3701C-219.317 58.8976 -205.479 101.339 -205.479 101.339C-205.479 101.339 -187.316 95.2756 -168.288 99.6063C-150.125 103.937 -144.071 122.126 -144.071 122.126C-144.071 122.126 -142.341 117.795 -131.962 116.063C-121.583 114.331 -117.259 117.795 -117.259 117.795C-117.259 117.795 -117.259 99.6063 -100.826 93.5433C-84.3926 87.4803 -69.6893 99.6063 -69.6893 99.6063C-69.6893 99.6063 -63.6349 74.4882 -42.8773 64.0945C-22.1196 53.7008 -2.22684 64.0945 -2.22684 64.0945C-2.22684 64.0945 8.15201 59.7638 18.5309 64.0945C28.9097 68.4252 33.2342 76.2205 33.2342 76.2205H45.3428C51.3972 76.2205 55.7217 82.2835 55.7217 82.2835C55.7217 82.2835 62.6409 66.6929 90.3178 63.2283C120.589 59.7638 136.158 84.0157 143.942 101.339C147.401 97.874 152.591 95.2756 159.51 93.5433C183.727 87.4803 194.106 99.6063 194.106 99.6063C194.106 99.6063 208.81 56.2992 290.11 47.6378C372.276 38.1102 396.493 81.4173 396.493 81.4173C396.493 81.4173 406.872 39.8425 445.793 32.0472C484.714 24.252 504.606 47.6378 504.606 47.6378C504.606 47.6378 509.796 42.4409 517.58 39.8425C525.364 38.1102 534.013 38.1102 534.013 38.1102C534.013 38.1102 578.988 -17.3228 642.991 9.52756C706.129 36.378 683.641 87.4803 683.641 87.4803C683.641 87.4803 700.074 79.685 718.237 87.4803C736.4 95.2756 742.455 108.268 742.455 108.268C742.455 108.268 758.888 97.874 781.375 97.874C803.863 97.874 818.566 108.268 818.566 108.268C818.566 108.268 820.296 99.6063 830.675 93.5433C841.054 87.4803 848.838 87.4803 848.838 87.4803C848.838 87.4803 844.513 60.6299 867.001 39.8425C889.488 19.0551 916.3 27.7165 916.3 27.7165C916.3 27.7165 929.274 7.79527 952.626 18.189C975.978 28.5827 967.329 63.2283 967.329 63.2283C967.329 63.2283 969.924 62.3622 978.573 67.5591C982.898 71.0236 985.492 74.4882 986.357 77.0866C990.682 64.9606 1007.11 26.8504 1059.01 42.4409C1120.42 60.6299 1089.28 119.528 1089.28 119.528C1089.28 119.528 1096.2 116.063 1106.58 119.528C1116.96 122.992 1116.09 129.055 1116.09 129.055C1116.09 129.055 1125.61 119.528 1135.99 119.528C1146.36 119.528 1154.15 123.858 1154.15 123.858C1154.15 123.858 1170.58 92.6772 1207.77 113.465C1244.96 134.252 1224.21 168.898 1224.21 168.898C1224.21 168.898 1246.69 148.11 1288.21 168.898C1317.62 183.622 1321.94 211.339 1321.94 211.339C1321.94 211.339 1350.48 151.575 1411.89 142.913C1473.3 134.252 1511.35 165.433 1511.35 165.433C1511.35 165.433 1518.27 165.433 1521.73 167.165C1525.19 168.898 1529.52 174.961 1529.52 174.961C1529.52 174.961 1567.57 148.11 1601.3 176.693C1617.74 191.417 1614.28 220 1614.28 220C1614.28 220 1616.87 210.472 1628.12 207.874C1639.36 205.276 1648.01 209.606 1648.01 209.606C1648.01 209.606 1647.14 199.213 1652.33 193.15C1657.52 187.087 1668.77 185.354 1668.77 185.354C1668.77 185.354 1628.12 104.803 1706.82 69.2913C1755.26 47.6378 1786.39 77.0866 1786.39 77.0866C1786.39 77.0866 1829.64 23.3858 1923.91 23.3858C2018.19 23.3858 2063.16 93.5433 2063.16 93.5433C2063.16 93.5433 2069.22 91.811 2077 90.0787V0H-375Z"/>
</svg>
