<svg viewBox="0 0 17 16" fill="currentColor" xmlns="http://www.w3.org/2000/svg">
<path d="M5.33271 1H11.2127C13.4527 1 15.2727 2.82 15.2727 5.06V10.94C15.2727 12.0168 14.845 13.0495 14.0836 13.8109C13.3222 14.5723 12.2895 15 11.2127 15H5.33271C3.09271 15 1.27271 13.18 1.27271 10.94V5.06C1.27271 3.98322 1.70045 2.95054 2.46185 2.18915C3.22325 1.42775 4.25593 1 5.33271 1ZM5.19271 2.4C4.52436 2.4 3.88339 2.6655 3.4108 3.13809C2.9382 3.61068 2.67271 4.25165 2.67271 4.92V11.08C2.67271 12.473 3.79971 13.6 5.19271 13.6H11.3527C12.0211 13.6 12.662 13.3345 13.1346 12.8619C13.6072 12.3893 13.8727 11.7483 13.8727 11.08V4.92C13.8727 3.527 12.7457 2.4 11.3527 2.4H5.19271ZM11.9477 3.45C12.1798 3.45 12.4023 3.54219 12.5664 3.70628C12.7305 3.87038 12.8227 4.09294 12.8227 4.325C12.8227 4.55706 12.7305 4.77962 12.5664 4.94372C12.4023 5.10781 12.1798 5.2 11.9477 5.2C11.7156 5.2 11.4931 5.10781 11.329 4.94372C11.1649 4.77962 11.0727 4.55706 11.0727 4.325C11.0727 4.09294 11.1649 3.87038 11.329 3.70628C11.4931 3.54219 11.7156 3.45 11.9477 3.45ZM8.27271 4.5C9.20096 4.5 10.0912 4.86875 10.7476 5.52513C11.404 6.1815 11.7727 7.07174 11.7727 8C11.7727 8.92826 11.404 9.8185 10.7476 10.4749C10.0912 11.1313 9.20096 11.5 8.27271 11.5C7.34445 11.5 6.45421 11.1313 5.79783 10.4749C5.14145 9.8185 4.77271 8.92826 4.77271 8C4.77271 7.07174 5.14145 6.1815 5.79783 5.52513C6.45421 4.86875 7.34445 4.5 8.27271 4.5ZM8.27271 5.9C7.71575 5.9 7.18161 6.12125 6.78778 6.51508C6.39395 6.9089 6.17271 7.44305 6.17271 8C6.17271 8.55695 6.39395 9.0911 6.78778 9.48492C7.18161 9.87875 7.71575 10.1 8.27271 10.1C8.82966 10.1 9.3638 9.87875 9.75763 9.48492C10.1515 9.0911 10.3727 8.55695 10.3727 8C10.3727 7.44305 10.1515 6.9089 9.75763 6.51508C9.3638 6.12125 8.82966 5.9 8.27271 5.9Z" fill="currentColor"/>
</svg>
