<svg width="24" height="24" viewBox="0 0 24 24" fill="none" xmlns="http://www.w3.org/2000/svg">
<path d="M9.78271 7.8658C9.78271 7.45158 9.44693 7.1158 9.03271 7.1158C8.6185 7.1158 8.28271 7.45158 8.28271 7.8658H9.78271ZM15.7164 7.8658C15.7164 7.45158 15.3806 7.1158 14.9664 7.1158C14.5521 7.1158 14.2164 7.45158 14.2164 7.8658H15.7164ZM8.28267 7.85305C8.27556 8.2672 8.60552 8.60871 9.01968 8.61582C9.43383 8.62294 9.77533 8.29297 9.78245 7.87882L8.28267 7.85305ZM9.79531 7.13036C9.80243 6.71621 9.47246 6.3747 9.05831 6.36759C8.64415 6.36047 8.30265 6.69044 8.29553 7.10459L9.79531 7.13036ZM9.76003 8.04825C9.8608 7.64648 9.61678 7.23909 9.21501 7.13833C8.81324 7.03756 8.40586 7.28158 8.30509 7.68335L9.76003 8.04825ZM8.83066 8.67084L9.55637 8.86032L9.55813 8.85329L8.83066 8.67084ZM6.99564 10.6974L7.25602 11.4008L6.99564 10.6974ZM4.7107 9.7379C4.37032 9.50187 3.90304 9.58647 3.66701 9.92685C3.43098 10.2672 3.51558 10.7345 3.85596 10.9705L4.7107 9.7379ZM5.03357 10.362C5.03781 9.94779 4.70548 9.60858 4.29129 9.60434C3.8771 9.60009 3.53789 9.93242 3.53365 10.3466L5.03357 10.362ZM4.21288 17.2563L4.96282 17.2653L4.96284 17.264L4.21288 17.2563ZM4.9552 19.095L4.42172 19.6221H4.42172L4.9552 19.095ZM6.78489 19.8592V19.1092H6.78484L6.78489 19.8592ZM9.42764 20.6092C9.84186 20.6092 10.1776 20.2734 10.1776 19.8592C10.1776 19.445 9.84186 19.1092 9.42764 19.1092V20.6092ZM3.85434 10.9692C4.19401 11.2063 4.66154 11.1231 4.8986 10.7835C5.13567 10.4438 5.05249 9.97625 4.71282 9.73919L3.85434 10.9692ZM3.09917 7.11733L2.3961 6.85618C2.38777 6.87862 2.38051 6.90145 2.37436 6.92459L3.09917 7.11733ZM4.17298 4.22638L4.87605 4.48753C4.88328 4.46807 4.8897 4.44832 4.89529 4.42833L4.17298 4.22638ZM5.59917 3.14099V2.39099L5.597 2.39099L5.59917 3.14099ZM18.3988 3.14099L18.401 2.39099H18.3988V3.14099ZM19.825 4.22638L19.1027 4.42833C19.1083 4.44828 19.1147 4.468 19.1219 4.48743L19.825 4.22638ZM20.8988 7.11862L21.6236 6.92595C21.6175 6.90283 21.6103 6.88001 21.6019 6.85757L20.8988 7.11862ZM19.2861 9.73943C18.9466 9.97668 18.8637 10.4443 19.1009 10.7838C19.3382 11.1233 19.8057 11.2063 20.1453 10.969L19.2861 9.73943ZM8.67737 19.8592C8.67737 20.2734 9.01315 20.6092 9.42737 20.6092C9.84158 20.6092 10.1774 20.2734 10.1774 19.8592H8.67737ZM13.8214 19.8592C13.8214 20.2734 14.1572 20.6092 14.5714 20.6092C14.9856 20.6092 15.3214 20.2734 15.3214 19.8592H13.8214ZM9.42737 19.1092C9.01315 19.1092 8.67737 19.445 8.67737 19.8592C8.67737 20.2734 9.01315 20.6092 9.42737 20.6092V19.1092ZM14.5714 20.6092C14.9856 20.6092 15.3214 20.2734 15.3214 19.8592C15.3214 19.445 14.9856 19.1092 14.5714 19.1092V20.6092ZM14.2165 7.87495C14.2215 8.28914 14.5613 8.62086 14.9755 8.61588C15.3897 8.6109 15.7214 8.2711 15.7164 7.85691L14.2165 7.87495ZM15.7074 7.10846C15.7024 6.69427 15.3626 6.36255 14.9485 6.36753C14.5343 6.37251 14.2026 6.71231 14.2075 7.1265L15.7074 7.10846ZM15.6974 7.68252C15.5962 7.28087 15.1885 7.03731 14.7869 7.13853C14.3852 7.23975 14.1417 7.64742 14.2429 8.04907L15.6974 7.68252ZM15.172 8.66698L14.4448 8.85026L14.4463 8.8562L15.172 8.66698ZM17.0045 10.6935L16.7434 11.3966L17.0045 10.6935ZM20.1418 10.9713C20.4826 10.7358 20.568 10.2687 20.3326 9.9279C20.0971 9.58711 19.63 9.50172 19.2892 9.73718L20.1418 10.9713ZM20.4654 10.347C20.4614 9.93284 20.1224 9.60032 19.7082 9.60433C19.294 9.60835 18.9615 9.94737 18.9655 10.3616L20.4654 10.347ZM19.7823 17.2563L19.0323 17.2636L19.0324 17.2653L19.7823 17.2563ZM19.04 19.095L18.5065 18.5678H18.5065L19.04 19.095ZM17.2103 19.8592L17.2103 19.1092H17.2103V19.8592ZM14.5714 19.1092C14.1572 19.1092 13.8214 19.445 13.8214 19.8592C13.8214 20.2734 14.1572 20.6092 14.5714 20.6092V19.1092ZM8.28271 7.8658C8.28271 9.91854 9.94679 11.5826 11.9995 11.5826V10.0826C10.7752 10.0826 9.78271 9.09011 9.78271 7.8658H8.28271ZM11.9995 11.5826C14.0523 11.5826 15.7164 9.91854 15.7164 7.8658H14.2164C14.2164 9.09011 13.2239 10.0826 11.9995 10.0826V11.5826ZM9.78245 7.87882L9.79531 7.13036L8.29553 7.10459L8.28267 7.85305L9.78245 7.87882ZM8.30509 7.68335L8.10319 8.48839L9.55813 8.85329L9.76003 8.04825L8.30509 7.68335ZM8.10499 8.48136C7.92283 9.17902 7.41147 9.74377 6.73527 9.9941L7.25602 11.4008C8.39163 10.9804 9.25041 10.032 9.55633 8.86031L8.10499 8.48136ZM6.73527 9.9941C6.05907 10.2444 5.30324 10.1488 4.7107 9.7379L3.85596 10.9705C4.85106 11.6606 6.12041 11.8212 7.25602 11.4008L6.73527 9.9941ZM3.53365 10.3466L3.46291 17.2486L4.96284 17.264L5.03357 10.362L3.53365 10.3466ZM3.46293 17.2473C3.45227 18.1353 3.79756 18.9905 4.42172 19.6221L5.48869 18.5678C5.14636 18.2214 4.95698 17.7523 4.96282 17.2653L3.46293 17.2473ZM4.42172 19.6221C5.04588 20.2538 5.89694 20.6093 6.78495 20.6092L6.78484 19.1092C6.2978 19.1092 5.83102 18.9143 5.48869 18.5678L4.42172 19.6221ZM6.78489 20.6092H9.42764V19.1092H6.78489V20.6092ZM4.71282 9.73919C3.93554 9.19671 3.58038 8.22611 3.82398 7.31007L2.37436 6.92459C1.96876 8.44985 2.56011 10.066 3.85434 10.9692L4.71282 9.73919ZM3.80223 7.37848L4.87605 4.48753L3.46992 3.96524L2.3961 6.85618L3.80223 7.37848ZM4.89529 4.42833C4.98389 4.11141 5.27227 3.89194 5.60134 3.89099L5.597 2.39099C4.59666 2.39389 3.72004 3.06104 3.45068 4.02444L4.89529 4.42833ZM5.59917 3.89099H18.3988V2.39099H5.59917V3.89099ZM18.3966 3.89099C18.7257 3.89194 19.0141 4.11141 19.1027 4.42833L20.5473 4.02444C20.2779 3.06104 19.4013 2.39389 18.401 2.39099L18.3966 3.89099ZM19.1219 4.48743L20.1957 7.37966L21.6019 6.85757L20.5281 3.96534L19.1219 4.48743ZM20.174 7.31128C20.4173 8.22681 20.0626 9.19683 19.2861 9.73943L20.1453 10.969C21.4382 10.0655 22.0288 8.45038 21.6236 6.92595L20.174 7.31128ZM10.1774 19.8592V16.0012H8.67737V19.8592H10.1774ZM10.1774 16.0012C10.1774 15.7051 10.4173 15.4651 10.7134 15.4651V13.9651C9.58892 13.9651 8.67737 14.8767 8.67737 16.0012H10.1774ZM10.7134 15.4651H13.2854V13.9651H10.7134V15.4651ZM13.2854 15.4651C13.5814 15.4651 13.8214 15.7051 13.8214 16.0012H15.3214C15.3214 14.8767 14.4099 13.9651 13.2854 13.9651V15.4651ZM13.8214 16.0012V19.8592H15.3214V16.0012H13.8214ZM9.42737 20.6092H14.5714V19.1092H9.42737V20.6092ZM15.7164 7.85691L15.7074 7.10846L14.2075 7.1265L14.2165 7.87495L15.7164 7.85691ZM14.2429 8.04907L14.4448 8.85026L15.8993 8.48371L15.6974 7.68252L14.2429 8.04907ZM14.4463 8.8562C14.7516 10.0271 15.609 10.9754 16.7434 11.3966L17.2656 9.99046C16.5901 9.73963 16.0796 9.17498 15.8978 8.47776L14.4463 8.8562ZM16.7434 11.3966C17.8778 11.8179 19.1463 11.6591 20.1418 10.9713L19.2892 9.73718C18.6964 10.1468 17.941 10.2413 17.2656 9.99046L16.7434 11.3966ZM18.9655 10.3616L19.0323 17.2636L20.5323 17.249L20.4654 10.347L18.9655 10.3616ZM19.0324 17.2653C19.0382 17.7523 18.8488 18.2214 18.5065 18.5678L19.5735 19.6221C20.1976 18.9905 20.5429 18.1352 20.5323 17.2473L19.0324 17.2653ZM18.5065 18.5678C18.1642 18.9143 17.6974 19.1092 17.2103 19.1092L17.2102 20.6092C18.0982 20.6093 18.9493 20.2538 19.5735 19.6221L18.5065 18.5678ZM17.2103 19.1092H14.5714V20.6092H17.2103V19.1092Z" fill="#777D8C"/>
</svg>
