<svg width="13" height="12" viewBox="0 0 13 12" fill="none" xmlns="http://www.w3.org/2000/svg">
<path d="M12.2637 6.31195C10.9192 6.59202 9.68577 7.25769 8.71459 8.22734C7.74341 9.197 7.0767 10.4285 6.7962 11.7709C6.77769 11.8355 6.73894 11.8924 6.68563 11.9333C6.63233 11.9743 6.56727 11.9971 6.50003 11.9984C6.42995 12.006 6.35959 11.9867 6.3032 11.9445C6.2468 11.9023 6.20858 11.8402 6.19628 11.7709C5.91578 10.4285 5.24907 9.197 4.27789 8.22734C3.30671 7.25769 2.07325 6.59202 0.728736 6.31195C0.662842 6.29311 0.604923 6.25329 0.563796 6.19854C0.52267 6.14379 0.50059 6.07712 0.500922 6.00868C0.495302 5.93994 0.515522 5.87158 0.557639 5.81691C0.599756 5.76225 0.66075 5.7252 0.728736 5.71299C2.07499 5.42795 3.30895 4.75763 4.27991 3.78389C5.25086 2.81015 5.91676 1.57516 6.19628 0.22977C6.21488 0.163697 6.25465 0.10553 6.30951 0.0641761C6.36437 0.0228217 6.43129 0.000557904 6.50003 0.000796107C6.56903 -0.00441861 6.63752 0.0161207 6.69223 0.0584192C6.74694 0.100718 6.78398 0.161769 6.7962 0.22977C7.07191 1.57686 7.73656 2.8139 8.70815 3.78828C9.67974 4.76265 10.9158 5.43174 12.2637 5.71299C12.3308 5.72826 12.3908 5.76584 12.4337 5.81956C12.4766 5.87328 12.5 5.93996 12.5 6.00868C12.5 6.0774 12.4766 6.1441 12.4337 6.19782C12.3908 6.25154 12.3308 6.28911 12.2637 6.30438V6.31195Z" fill="black"/>
</svg>
