<svg width="28" height="26" viewBox="0 0 28 26" fill="none" xmlns="http://www.w3.org/2000/svg">
<path d="M3.30781 24.5535C6.87506 24.5535 9.55589 21.4616 11.1558 19.0184C10.9612 19.5589 10.853 20.0994 10.853 20.6184C10.853 22.0454 11.6746 23.0616 13.2961 23.0616C15.5229 23.0616 17.9011 21.1157 19.1334 19.0184C19.0469 19.3211 19.0037 19.6022 19.0037 19.8616C19.0037 20.8562 19.5658 21.4833 20.7116 21.4833C24.3221 21.4833 27.9542 15.1049 27.9542 9.5265C27.9542 5.18054 25.749 1.35352 20.2144 1.35352C10.4856 1.35352 0 13.2022 0 20.8562C0 23.8616 1.62147 24.5535 3.30781 24.5535ZM16.8633 9.05083C16.8633 7.96975 17.4687 7.213 18.3551 7.213C19.2199 7.213 19.8252 7.96975 19.8252 9.05083C19.8252 10.1319 19.2199 10.9103 18.3551 10.9103C17.4687 10.9103 16.8633 10.1319 16.8633 9.05083ZM21.4899 9.05083C21.4899 7.96975 22.0953 7.213 22.9817 7.213C23.8465 7.213 24.4518 7.96975 24.4518 9.05083C24.4518 10.1319 23.8465 10.9103 22.9817 10.9103C22.0953 10.9103 21.4899 10.1319 21.4899 9.05083Z" fill="#AB9FF2"/>
</svg>
