<svg width="12" height="12" viewBox="0 0 12 12" fill="none" xmlns="http://www.w3.org/2000/svg">
<g clip-path="url(#clip0_1848_3304)">
<path d="M11.858 6.99158C11.9395 6.71596 11.987 6.4318 11.9997 6.14514C12.0041 5.80275 11.9281 5.46393 11.7778 5.15477C11.7103 5.01281 11.508 4.8702 11.3542 4.83652C11.17 4.78861 10.9739 4.81376 10.8086 4.90651C9.90784 5.46375 9.06022 6.09928 8.27597 6.80539C7.92862 7.11372 7.59274 7.43262 7.26428 7.75812C7.28721 7.70068 7.31014 7.64324 7.33172 7.58514C7.75596 6.503 8.17614 5.41556 8.46886 4.29116C8.64737 3.60838 8.77118 2.91301 8.83914 2.21138C8.83105 2.14998 8.82228 2.08857 8.81418 2.02717C8.79058 1.97171 8.7663 1.91624 8.74269 1.86144C8.68672 1.7714 8.61078 1.69484 8.52049 1.6374C8.43021 1.57997 8.32789 1.54313 8.2211 1.52963C8.11432 1.51613 8.0058 1.52631 7.90357 1.5594C7.80134 1.59249 7.70802 1.64766 7.63051 1.72082C6.61882 2.78514 5.70695 3.94256 4.84094 5.1244C4.63995 5.39906 4.44076 5.67525 4.24337 5.953C4.65748 4.92103 5.048 3.88049 5.38995 2.82343C5.51607 2.43388 5.65973 2.03906 5.74471 1.63895C5.80583 1.38086 5.81567 1.11367 5.77372 0.851939C5.75099 0.730486 5.70888 0.61329 5.64894 0.504648C5.58944 0.388633 5.50609 0.285903 5.40411 0.202911C5.25978 0.0886878 5.09993 -0.00903395 4.90366 -0.000450731C4.71747 0.00790472 4.54016 0.0798636 4.40254 0.202911C3.15389 1.23542 2.01666 2.39051 1.00865 3.65006C0.693681 4.04621 0.387475 4.44236 0.0947596 4.85501C-0.00506056 4.99565 -0.0212478 5.22872 0.023941 5.38916C0.0738867 5.56634 0.193668 5.71686 0.35695 5.80762C0.520231 5.89837 0.713647 5.92192 0.89467 5.87311C1.06915 5.81772 1.21876 5.70509 1.31823 5.55422C1.53046 5.25579 1.75011 4.96219 1.97718 4.67344C2.61405 3.87455 3.30322 3.11697 4.04035 2.40549C4.03293 2.42794 4.02619 2.45038 4.01877 2.47151C3.86499 2.94557 3.70245 3.41678 3.53114 3.88511C3.19391 4.80946 2.82498 5.72984 2.44458 6.64099C2.23685 7.13837 2.02596 7.63422 1.81194 8.12853C1.40726 9.07136 0.999211 10.0142 0.58779 10.957C0.537028 11.034 0.508159 11.1229 0.504157 11.2145C0.483219 11.3062 0.487643 11.4017 0.516972 11.4912C0.561099 11.6341 0.649769 11.7599 0.770568 11.851C0.891568 11.9479 1.0432 12.0006 1.19953 12.0002C1.37488 11.9923 1.58532 11.9375 1.70065 11.7968C2.46279 10.8639 3.17704 9.89534 3.87309 8.91421C4.5408 7.97336 5.19436 7.0226 5.87219 6.08835C6.19278 5.6451 6.52057 5.20737 6.85555 4.77513C6.76293 5.06607 6.66535 5.35548 6.56284 5.64334C6.19121 6.68323 5.7636 7.70266 5.37781 8.73727C5.15928 9.32291 4.95492 9.91317 4.78091 10.5127C4.69863 10.7972 4.83284 11.1544 5.10668 11.2957C5.21721 11.3528 5.33928 11.3853 5.46414 11.3908C5.55712 11.3908 5.64918 11.3728 5.73506 11.3379C5.82094 11.303 5.89894 11.2519 5.96459 11.1874C7.04845 9.99041 8.13635 8.79008 9.35375 7.71982C9.67255 7.43855 10.0012 7.16831 10.3398 6.90905C10.3675 6.88792 10.3965 6.86678 10.4248 6.84631C10.3708 7.01468 10.3122 7.18239 10.2582 7.35009C10.1186 7.78453 10.0019 8.25264 10.0437 8.71019C10.0489 8.89304 10.1226 9.06765 10.2508 9.20077C10.3837 9.33063 10.5638 9.40356 10.7516 9.40356C10.9394 9.40356 11.1195 9.33063 11.2524 9.20077C11.3731 9.07202 11.4763 8.8911 11.4601 8.71019C11.4493 8.59158 11.4493 8.47227 11.4601 8.35366C11.541 7.88621 11.7285 7.44649 11.858 6.99158Z" fill="black"/>
</g>
<defs>
<clipPath id="clip0_1848_3304">
<rect width="12" height="12" fill="white"/>
</clipPath>
</defs>
</svg>
