<svg width="26" height="24" viewBox="0 0 26 24" fill="none" xmlns="http://www.w3.org/2000/svg">
<path d="M11.6134 7.47059V1M4.15789 21.7059V15.2353M8.45547 4.23529H14.7713M1 18.4706H7.31579M18.6842 10.0588L17.4828 12.5206C17.1474 13.2077 16.9798 13.5513 16.7558 13.849C16.557 14.1132 16.3258 14.35 16.0679 14.5537C15.7773 14.7832 15.442 14.955 14.7713 15.2985L12.3684 16.5294L14.7713 17.7603C15.442 18.1039 15.7773 18.2756 16.0679 18.5051C16.3258 18.7088 16.557 18.9456 16.7558 19.2098C16.9798 19.5075 17.1474 19.8511 17.4828 20.5383L18.6842 23L19.8856 20.5383C20.221 19.8511 20.3887 19.5075 20.6127 19.2098C20.8114 18.9456 21.0426 18.7088 21.3005 18.5051C21.5911 18.2756 21.9264 18.1039 22.5972 17.7603L25 16.5294L22.5972 15.2985C21.9264 14.955 21.5911 14.7832 21.3005 14.5537C21.0426 14.35 20.8114 14.1132 20.6127 13.849C20.3887 13.5513 20.221 13.2077 19.8856 12.5206L18.6842 10.0588Z" stroke="black" stroke-width="2" stroke-linecap="round" stroke-linejoin="round"/>
</svg>
