<svg width="24" height="24" viewBox="0 0 20 18" fill="none" xmlns="http://www.w3.org/2000/svg">
<path d="M14.2632 7.54412L15.1642 9.39042C15.4157 9.90578 15.5415 10.1635 15.7095 10.3868C15.8586 10.5849 16.032 10.7625 16.2254 10.9153C16.4433 11.0874 16.6948 11.2162 17.1979 11.4739L19 12.3971L17.1979 13.3202C16.6948 13.5779 16.4433 13.7067 16.2254 13.8789C16.032 14.0316 15.8586 14.2092 15.7095 14.4074C15.5415 14.6307 15.4157 14.8883 15.1642 15.4037L14.2632 17.25L13.3621 15.4037C13.1106 14.8883 12.9848 14.6307 12.8168 14.4074C12.6677 14.2092 12.4944 14.0316 12.301 13.8789C12.083 13.7067 11.8315 13.5779 11.3284 13.3202L9.52632 12.3971L11.3284 11.4739C11.8315 11.2162 12.083 11.0874 12.301 10.9153C12.4944 10.7625 12.6677 10.5849 12.8168 10.3868C12.9848 10.1635 13.1106 9.90578 13.3621 9.39042L14.2632 7.54412Z" fill="black"/>
<path d="M8.96003 5.60294V0.75M3.36842 16.2794V11.4265M6.59161 3.17647H8.96003H11.3284M1 13.8529H5.73684M14.2632 7.54412L13.3621 9.39042C13.1106 9.90578 12.9848 10.1635 12.8168 10.3868C12.6677 10.5849 12.4944 10.7625 12.301 10.9153C12.083 11.0874 11.8315 11.2162 11.3284 11.4739L9.52632 12.3971L11.3284 13.3202C11.8315 13.5779 12.083 13.7067 12.301 13.8789C12.4944 14.0316 12.6677 14.2092 12.8168 14.4074C12.9848 14.6307 13.1106 14.8883 13.3621 15.4037L14.2632 17.25L15.1642 15.4037C15.4157 14.8883 15.5415 14.6307 15.7095 14.4074C15.8586 14.2092 16.032 14.0316 16.2254 13.8789C16.4433 13.7067 16.6948 13.5779 17.1979 13.3202L19 12.3971L17.1979 11.4739C16.6948 11.2162 16.4433 11.0874 16.2254 10.9153C16.032 10.7625 15.8586 10.5849 15.7095 10.3868C15.5415 10.1635 15.4157 9.90578 15.1642 9.39042L14.2632 7.54412Z" stroke="black" stroke-width="1.5" stroke-linecap="round" stroke-linejoin="round"/>
</svg>
