<svg width="28" height="28" viewBox="0 0 28 28" fill="none" xmlns="http://www.w3.org/2000/svg">
<path d="M23.4367 21.4995C21.7456 20.6024 20.4074 18.3084 19.6869 15.0291C19.6722 14.9409 17.7458 5.54422 17.084 2.07377C16.9811 1.51501 16.6282 1.02972 16.1135 0.765048C15.8341 0.617955 15.5253 0.544434 15.2165 0.544434C14.9665 0.544434 14.7165 0.588546 14.4665 0.691475L1.31999 6.30889C0.496502 6.66184 0.0259163 7.54415 0.202418 8.42645C0.217122 8.49997 2.04055 16.485 2.61406 19.1319C3.40814 22.8229 5.1875 25.6169 7.46681 26.8227C9.05496 27.6462 10.7755 27.6903 12.5989 26.9257C15.29 25.7934 22.5544 22.8818 25.0249 21.8818C24.5102 21.9112 23.9661 21.7788 23.4367 21.4995Z" fill="url(#paint0_linear_1169_889)"/>
<path d="M25.5689 15.0592C25.4807 14.5739 24.6278 10.3535 24.2602 8.42714C24.0102 7.14777 23.7602 5.79488 23.4808 4.35377C23.3778 3.79495 23.0249 3.30972 22.5102 3.04499C21.9955 2.78031 21.4074 2.7509 20.878 2.97147L19.5398 3.54498C19.8339 4.94198 20.128 6.3831 20.4368 7.88303C20.8486 9.91236 21.7897 14.4269 21.7897 14.4563C22.1132 15.8974 22.8485 17.7944 23.8631 18.4267C24.2161 18.6473 24.5984 18.7061 24.9808 18.6032C25.9954 18.3532 25.8337 16.4856 25.5689 15.0592Z" fill="url(#paint1_linear_1169_889)"/>
<path d="M27.7452 14.8679C27.2599 12.5151 26.1129 6.72116 25.76 5.05948C25.5835 4.19188 24.9365 3.50073 24.1277 3.29487L22.0837 2.72136C21.6572 2.61843 21.2161 2.66254 20.8043 2.82429L19.4956 3.3831C19.4514 3.17719 19.4073 2.97133 19.3632 2.76547C19.1867 1.89787 18.5397 1.20672 17.7309 1.00081L15.6869 0.442053C15.2604 0.339072 14.8193 0.368481 14.4075 0.544982L1.24631 6.1624C0.349305 6.54471 -0.150689 7.50053 0.0404658 8.45641C0.05517 8.52993 1.87864 16.5149 2.45216 19.1618C3.26094 22.897 5.05496 25.7351 7.39313 26.9556C8.23132 27.3968 9.12833 27.6174 10.0547 27.6174C10.9077 27.6174 11.7753 27.4409 12.6576 27.0733C15.9075 25.7204 25.9218 21.6911 25.9218 21.6911C27.6864 21 28.4363 18.1913 27.7452 14.8679ZM20.8632 2.97133C21.3925 2.75077 21.9954 2.76547 22.4954 3.04485C23.0101 3.30958 23.363 3.79482 23.466 4.35363C23.7454 5.78004 23.9954 7.13293 24.2453 8.427C24.613 10.3534 25.4659 14.5738 25.5541 15.0591C25.8188 16.4855 25.9806 18.3531 24.9806 18.603C24.5983 18.706 24.2159 18.6471 23.863 18.4266C22.8336 17.7942 22.0984 15.8972 21.7896 14.4561C21.7896 14.4267 20.8484 9.91222 20.4367 7.88289C20.1279 6.38296 19.8338 4.95655 19.5397 3.54484L20.8632 2.97133ZM19.2161 2.80958C19.2602 3.03015 21.6278 14.4855 21.6278 14.4855C21.7455 15.0149 22.4072 17.706 23.7748 18.5589C24.0395 18.7207 24.3336 18.8089 24.613 18.8089C24.7453 18.8089 24.8777 18.7942 25.01 18.7648C26.157 18.4707 25.9953 16.559 25.7159 15.0443C25.6276 14.5591 24.76 10.3239 24.4071 8.39759C24.1571 7.11822 23.9071 5.76533 23.6277 4.32422C23.5395 3.82422 23.2601 3.3978 22.8778 3.10367L24.0983 3.44192C24.863 3.63307 25.4512 4.28011 25.6276 5.08889C25.9806 6.75057 27.1129 12.5592 27.6128 14.8973C28.2746 18.1471 27.5687 20.8823 25.8923 21.5441C25.1424 21.8382 24.3336 21.7794 23.5395 21.3676C21.8925 20.4853 20.5837 18.2354 19.8632 15.0002C19.8191 14.7944 17.9221 5.50066 17.2604 2.05962C17.1721 1.55962 16.8927 1.13315 16.4957 0.824362L17.7162 1.16261C18.4515 1.35376 19.0544 2.0008 19.2161 2.80958ZM12.5988 26.9262C10.7753 27.6909 9.05481 27.6468 7.46665 26.8233C5.17264 25.6321 3.40798 22.8234 2.61391 19.1324C2.04039 16.4855 0.216968 8.50052 0.202263 8.427C0.0257617 7.54469 0.496347 6.66234 1.31983 6.30944L14.4811 0.692024C14.7163 0.589095 14.9663 0.544982 15.231 0.544982C15.5398 0.544982 15.8487 0.618503 16.128 0.765545C16.6427 1.03022 16.9956 1.51551 17.0986 2.07432C17.775 5.54477 19.6867 14.9267 19.7014 15.0296C20.422 18.3089 21.7602 20.6029 23.4512 21.5C23.9806 21.7794 24.51 21.9117 25.0395 21.8823C22.5542 22.8823 15.2898 25.8086 12.5988 26.9262Z" fill="#9C12C1"/>
<path d="M19.2162 2.80939C19.2603 3.03 21.6279 14.4854 21.6279 14.4854C21.7455 15.0148 22.4072 17.7058 23.7748 18.5588C24.0395 18.7205 24.3336 18.8087 24.613 18.8087C24.7453 18.8087 24.8777 18.794 25.0101 18.7646C26.1571 18.4705 25.9953 16.5588 25.7159 15.0442C25.6277 14.5589 24.7601 10.3238 24.4072 8.3974C24.1572 7.11803 23.9072 5.76519 23.6278 4.32402C23.5396 3.82408 23.2601 3.39761 22.8778 3.10352L24.0983 3.44172C24.863 3.63288 25.4512 4.27991 25.6277 5.08875C25.9806 6.75042 27.1129 12.559 27.6129 14.8971C28.2746 18.147 27.5688 20.8822 25.8924 21.5439C25.1424 21.838 24.3336 21.7792 23.5396 21.3675C21.8925 20.4851 20.5838 18.2352 19.8632 15.0001C19.8191 14.7942 17.9221 5.50046 17.2604 2.05942C17.1722 1.55948 16.8927 1.13301 16.4957 0.824219L17.7162 1.16242C18.4515 1.35357 19.0544 2.00061 19.2162 2.80939Z" fill="white"/>
<defs>
<linearGradient id="paint0_linear_1169_889" x1="5.55264" y1="3.84671" x2="18.2317" y2="25.8076" gradientUnits="userSpaceOnUse">
<stop stop-color="#FF004C"/>
<stop offset="0.21" stop-color="#FF006F"/>
<stop offset="0.33" stop-color="#FF007F"/>
<stop offset="0.4" stop-color="#F30083"/>
<stop offset="0.52" stop-color="#D90096"/>
<stop offset="0.67" stop-color="#AF00B4"/>
<stop offset="0.78" stop-color="#8B00CE"/>
<stop offset="1" stop-color="#3664FF"/>
</linearGradient>
<linearGradient id="paint1_linear_1169_889" x1="19.1478" y1="3.76729" x2="27.0473" y2="17.4497" gradientUnits="userSpaceOnUse">
<stop stop-color="#FF004C"/>
<stop offset="0.21" stop-color="#FF006F"/>
<stop offset="0.33" stop-color="#FF007F"/>
<stop offset="0.4" stop-color="#F30083"/>
<stop offset="0.52" stop-color="#D90096"/>
<stop offset="0.67" stop-color="#AF00B4"/>
<stop offset="0.78" stop-color="#8B00CE"/>
<stop offset="1" stop-color="#3664FF"/>
</linearGradient>
</defs>
</svg>
