<svg width="13" height="13" viewBox="0 0 13 13" fill="none" xmlns="http://www.w3.org/2000/svg">
<g clip-path="url(#clip0_1848_3329)">
<path d="M12.5 7.87347C12.5002 7.91053 12.4931 7.94725 12.479 7.98155C12.465 8.01585 12.4443 8.04703 12.4182 8.07331C12.392 8.09959 12.361 8.12043 12.3267 8.13466C12.2925 8.14889 12.2558 8.15623 12.2187 8.15623H10.3822C10.3076 8.15623 10.236 8.18588 10.1833 8.23863C10.1305 8.29138 10.1009 8.36291 10.1009 8.4375V10.274C10.1005 10.3489 10.0706 10.4206 10.0176 10.4736C9.9647 10.5265 9.89301 10.5564 9.81813 10.5568H7.98157C7.90698 10.5568 7.83544 10.5865 7.78269 10.6392C7.72994 10.692 7.70031 10.7635 7.70031 10.8381V12.6747C7.70031 12.7117 7.69298 12.7484 7.67875 12.7827C7.66452 12.8169 7.64367 12.848 7.61739 12.8741C7.59112 12.9002 7.55992 12.9209 7.52562 12.935C7.49132 12.949 7.45459 12.9561 7.41753 12.9559H5.58248C5.54542 12.9561 5.50868 12.949 5.47438 12.935C5.44008 12.9209 5.40889 12.9002 5.38261 12.8741C5.35633 12.848 5.33549 12.8169 5.32126 12.7827C5.30703 12.7484 5.2997 12.7117 5.2997 12.6747V10.8381C5.2997 10.7635 5.27007 10.692 5.21732 10.6392C5.16457 10.5865 5.09303 10.5568 5.01843 10.5568H3.18795C3.11308 10.5564 3.04138 10.5265 2.98844 10.4736C2.93549 10.4206 2.90557 10.3489 2.90517 10.274V8.4375C2.90517 8.36291 2.87554 8.29138 2.82279 8.23863C2.77005 8.18588 2.6985 8.15623 2.62391 8.15623H0.781262C0.744198 8.15623 0.707502 8.14889 0.673278 8.13466C0.639054 8.12043 0.607977 8.09959 0.581839 8.07331C0.555701 8.04703 0.535021 8.01585 0.520976 7.98155C0.506931 7.94725 0.499804 7.91053 0.500004 7.87347V6.03841C0.499804 6.00135 0.506931 5.96463 0.520976 5.93033C0.535021 5.89603 0.555701 5.86481 0.581839 5.83853C0.607977 5.81226 0.639054 5.79141 0.673278 5.77718C0.707502 5.76295 0.744198 5.75561 0.781262 5.75561H2.61783C2.69242 5.75561 2.76397 5.726 2.81671 5.67325C2.86946 5.6205 2.89909 5.54897 2.89909 5.47437V3.64084C2.89949 3.56597 2.92941 3.49428 2.98236 3.44134C3.03531 3.38839 3.107 3.35844 3.18188 3.35804H5.01236C5.08695 3.35804 5.15849 3.32843 5.21124 3.27568C5.26399 3.22293 5.29361 3.1514 5.29361 3.0768V1.24023C5.29361 1.20316 5.30094 1.16648 5.31517 1.13225C5.3294 1.09803 5.35026 1.06693 5.37653 1.0408C5.40281 1.01466 5.434 0.994005 5.4683 0.97996C5.5026 0.965915 5.53934 0.958788 5.5764 0.958988H7.41145C7.44851 0.958788 7.48524 0.965915 7.51954 0.97996C7.55384 0.994005 7.58503 1.01466 7.61131 1.0408C7.63759 1.06693 7.65844 1.09803 7.67267 1.13225C7.6869 1.16648 7.69423 1.20316 7.69423 1.24023V3.0768C7.69423 3.1514 7.72385 3.22293 7.7766 3.27568C7.82935 3.32843 7.90089 3.35804 7.97549 3.35804H9.81205C9.88693 3.35844 9.95862 3.38839 10.0116 3.44134C10.0645 3.49428 10.0944 3.56597 10.0948 3.64084V5.47742C10.0948 5.51435 10.1021 5.55093 10.1162 5.58506C10.1304 5.61918 10.1511 5.65018 10.1772 5.67629C10.2033 5.70241 10.2343 5.72311 10.2685 5.73724C10.3026 5.75138 10.3392 5.75866 10.3761 5.75866H12.2187C12.2558 5.75866 12.2925 5.76599 12.3267 5.78022C12.361 5.79445 12.392 5.8153 12.4182 5.84158C12.4443 5.86786 12.465 5.89903 12.479 5.93333C12.4931 5.96763 12.5002 6.00439 12.5 6.04146V7.87347Z" fill="black"/>
</g>
<defs>
<clipPath id="clip0_1848_3329">
<rect width="12" height="12" fill="white" transform="translate(0.5 0.956055)"/>
</clipPath>
</defs>
</svg>
